<?xml version="1.0" encoding="us-ascii" standalone="no"?><svg xmlns="http://www.w3.org/2000/svg" xmlns:xlink="http://www.w3.org/1999/xlink" contentStyleType="text/css" height="329px" preserveAspectRatio="none" style="width:1919px;height:329px;background:#FFFFFF;" version="1.1" viewBox="0 0 1919 329" width="1919px" zoomAndPan="magnify"><defs/><g><text fill="#000000" font-family="sans-serif" font-size="14" font-weight="bold" lengthAdjust="spacing" textLength="229" x="838" y="24.9659">Infraestrutura - Pix Microservices</text><!--cluster Customer Service Cluster--><g id="cluster_Customer Service Cluster"><polygon fill="none" points="16,122.1279,26,112.1279,654,112.1279,654,210.1979,644,220.1979,16,220.1979,16,122.1279" style="stroke:#181818;stroke-width:1.0;"/><line style="stroke:#181818;stroke-width:1.0;" x1="644" x2="654" y1="122.1279" y2="112.1279"/><line style="stroke:#181818;stroke-width:1.0;" x1="16" x2="644" y1="122.1279" y2="122.1279"/><line style="stroke:#181818;stroke-width:1.0;" x1="644" x2="644" y1="122.1279" y2="220.1979"/><text fill="#000000" font-family="sans-serif" font-size="14" font-weight="bold" lengthAdjust="spacing" textLength="174" x="244" y="140.0939">Customer Service Cluster</text></g><!--cluster Transfer Service Cluster--><g id="cluster_Transfer Service Cluster"><polygon fill="none" points="678,122.1279,688,112.1279,1294,112.1279,1294,210.1979,1284,220.1979,678,220.1979,678,122.1279" style="stroke:#181818;stroke-width:1.0;"/><line style="stroke:#181818;stroke-width:1.0;" x1="1284" x2="1294" y1="122.1279" y2="112.1279"/><line style="stroke:#181818;stroke-width:1.0;" x1="678" x2="1284" y1="122.1279" y2="122.1279"/><line style="stroke:#181818;stroke-width:1.0;" x1="1284" x2="1284" y1="122.1279" y2="220.1979"/><text fill="#000000" font-family="sans-serif" font-size="14" font-weight="bold" lengthAdjust="spacing" textLength="163" x="900.5" y="140.0939">Transfer Service Cluster</text></g><!--cluster Ledger Service Cluster--><g id="cluster_Ledger Service Cluster"><polygon fill="none" points="1318,122.1279,1328,112.1279,1902,112.1279,1902,210.1979,1892,220.1979,1318,220.1979,1318,122.1279" style="stroke:#181818;stroke-width:1.0;"/><line style="stroke:#181818;stroke-width:1.0;" x1="1892" x2="1902" y1="122.1279" y2="112.1279"/><line style="stroke:#181818;stroke-width:1.0;" x1="1318" x2="1892" y1="122.1279" y2="122.1279"/><line style="stroke:#181818;stroke-width:1.0;" x1="1892" x2="1892" y1="122.1279" y2="220.1979"/><text fill="#000000" font-family="sans-serif" font-size="14" font-weight="bold" lengthAdjust="spacing" textLength="154" x="1529" y="140.0939">Ledger Service Cluster</text></g><!--entity Customer Instance 1--><g id="elem_Customer Instance 1"><rect fill="#F1F1F1" height="49.0679" rx="2.5" ry="2.5" style="stroke:#181818;stroke-width:0.5;" width="179" x="31.5" y="155.1279"/><rect fill="#F1F1F1" height="10" style="stroke:#181818;stroke-width:0.5;" width="15" x="190.5" y="160.1279"/><rect fill="#F1F1F1" height="2" style="stroke:#181818;stroke-width:0.5;" width="4" x="188.5" y="162.1279"/><rect fill="#F1F1F1" height="2" style="stroke:#181818;stroke-width:0.5;" width="4" x="188.5" y="166.1279"/><text fill="#000000" font-family="sans-serif" font-size="14" lengthAdjust="spacing" textLength="139" x="46.5" y="190.0939">Customer Instance 1</text></g><!--entity Customer Instance 2--><g id="elem_Customer Instance 2"><rect fill="#F1F1F1" height="49.0679" rx="2.5" ry="2.5" style="stroke:#181818;stroke-width:0.5;" width="179" x="245.5" y="155.1279"/><rect fill="#F1F1F1" height="10" style="stroke:#181818;stroke-width:0.5;" width="15" x="404.5" y="160.1279"/><rect fill="#F1F1F1" height="2" style="stroke:#181818;stroke-width:0.5;" width="4" x="402.5" y="162.1279"/><rect fill="#F1F1F1" height="2" style="stroke:#181818;stroke-width:0.5;" width="4" x="402.5" y="166.1279"/><text fill="#000000" font-family="sans-serif" font-size="14" lengthAdjust="spacing" textLength="139" x="260.5" y="190.0939">Customer Instance 2</text></g><!--entity Customer Instance 3--><g id="elem_Customer Instance 3"><rect fill="#F1F1F1" height="49.0679" rx="2.5" ry="2.5" style="stroke:#181818;stroke-width:0.5;" width="179" x="459.5" y="155.1279"/><rect fill="#F1F1F1" height="10" style="stroke:#181818;stroke-width:0.5;" width="15" x="618.5" y="160.1279"/><rect fill="#F1F1F1" height="2" style="stroke:#181818;stroke-width:0.5;" width="4" x="616.5" y="162.1279"/><rect fill="#F1F1F1" height="2" style="stroke:#181818;stroke-width:0.5;" width="4" x="616.5" y="166.1279"/><text fill="#000000" font-family="sans-serif" font-size="14" lengthAdjust="spacing" textLength="139" x="474.5" y="190.0939">Customer Instance 3</text></g><!--entity Transfer Instance 1--><g id="elem_Transfer Instance 1"><rect fill="#F1F1F1" height="49.0679" rx="2.5" ry="2.5" style="stroke:#181818;stroke-width:0.5;" width="171" x="900.5" y="155.1279"/><rect fill="#F1F1F1" height="10" style="stroke:#181818;stroke-width:0.5;" width="15" x="1051.5" y="160.1279"/><rect fill="#F1F1F1" height="2" style="stroke:#181818;stroke-width:0.5;" width="4" x="1049.5" y="162.1279"/><rect fill="#F1F1F1" height="2" style="stroke:#181818;stroke-width:0.5;" width="4" x="1049.5" y="166.1279"/><text fill="#000000" font-family="sans-serif" font-size="14" lengthAdjust="spacing" textLength="131" x="915.5" y="190.0939">Transfer Instance 1</text></g><!--entity Transfer Instance 2--><g id="elem_Transfer Instance 2"><rect fill="#F1F1F1" height="49.0679" rx="2.5" ry="2.5" style="stroke:#181818;stroke-width:0.5;" width="171" x="1106.5" y="155.1279"/><rect fill="#F1F1F1" height="10" style="stroke:#181818;stroke-width:0.5;" width="15" x="1257.5" y="160.1279"/><rect fill="#F1F1F1" height="2" style="stroke:#181818;stroke-width:0.5;" width="4" x="1255.5" y="162.1279"/><rect fill="#F1F1F1" height="2" style="stroke:#181818;stroke-width:0.5;" width="4" x="1255.5" y="166.1279"/><text fill="#000000" font-family="sans-serif" font-size="14" lengthAdjust="spacing" textLength="131" x="1121.5" y="190.0939">Transfer Instance 2</text></g><!--entity Transfer Instance 3--><g id="elem_Transfer Instance 3"><rect fill="#F1F1F1" height="49.0679" rx="2.5" ry="2.5" style="stroke:#181818;stroke-width:0.5;" width="171" x="694.5" y="155.1279"/><rect fill="#F1F1F1" height="10" style="stroke:#181818;stroke-width:0.5;" width="15" x="845.5" y="160.1279"/><rect fill="#F1F1F1" height="2" style="stroke:#181818;stroke-width:0.5;" width="4" x="843.5" y="162.1279"/><rect fill="#F1F1F1" height="2" style="stroke:#181818;stroke-width:0.5;" width="4" x="843.5" y="166.1279"/><text fill="#000000" font-family="sans-serif" font-size="14" lengthAdjust="spacing" textLength="131" x="709.5" y="190.0939">Transfer Instance 3</text></g><!--entity Ledger Instance 1--><g id="elem_Ledger Instance 1"><rect fill="#F1F1F1" height="49.0679" rx="2.5" ry="2.5" style="stroke:#181818;stroke-width:0.5;" width="161" x="1333.5" y="155.1279"/><rect fill="#F1F1F1" height="10" style="stroke:#181818;stroke-width:0.5;" width="15" x="1474.5" y="160.1279"/><rect fill="#F1F1F1" height="2" style="stroke:#181818;stroke-width:0.5;" width="4" x="1472.5" y="162.1279"/><rect fill="#F1F1F1" height="2" style="stroke:#181818;stroke-width:0.5;" width="4" x="1472.5" y="166.1279"/><text fill="#000000" font-family="sans-serif" font-size="14" lengthAdjust="spacing" textLength="121" x="1348.5" y="190.0939">Ledger Instance 1</text></g><!--entity Ledger Instance 2--><g id="elem_Ledger Instance 2"><rect fill="#F1F1F1" height="49.0679" rx="2.5" ry="2.5" style="stroke:#181818;stroke-width:0.5;" width="161" x="1529.5" y="155.1279"/><rect fill="#F1F1F1" height="10" style="stroke:#181818;stroke-width:0.5;" width="15" x="1670.5" y="160.1279"/><rect fill="#F1F1F1" height="2" style="stroke:#181818;stroke-width:0.5;" width="4" x="1668.5" y="162.1279"/><rect fill="#F1F1F1" height="2" style="stroke:#181818;stroke-width:0.5;" width="4" x="1668.5" y="166.1279"/><text fill="#000000" font-family="sans-serif" font-size="14" lengthAdjust="spacing" textLength="121" x="1544.5" y="190.0939">Ledger Instance 2</text></g><!--entity Ledger Instance 3--><g id="elem_Ledger Instance 3"><rect fill="#F1F1F1" height="49.0679" rx="2.5" ry="2.5" style="stroke:#181818;stroke-width:0.5;" width="161" x="1725.5" y="155.1279"/><rect fill="#F1F1F1" height="10" style="stroke:#181818;stroke-width:0.5;" width="15" x="1866.5" y="160.1279"/><rect fill="#F1F1F1" height="2" style="stroke:#181818;stroke-width:0.5;" width="4" x="1864.5" y="162.1279"/><rect fill="#F1F1F1" height="2" style="stroke:#181818;stroke-width:0.5;" width="4" x="1864.5" y="166.1279"/><text fill="#000000" font-family="sans-serif" font-size="14" lengthAdjust="spacing" textLength="121" x="1740.5" y="190.0939">Ledger Instance 3</text></g><!--entity lb_cust--><g id="elem_lb_cust"><polygon fill="#F1F1F1" points="231,56.0679,241,46.0679,439,46.0679,439,85.1358,429,95.1358,231,95.1358,231,56.0679" style="stroke:#181818;stroke-width:0.5;"/><line style="stroke:#181818;stroke-width:0.5;" x1="429" x2="439" y1="56.0679" y2="46.0679"/><line style="stroke:#181818;stroke-width:0.5;" x1="231" x2="429" y1="56.0679" y2="56.0679"/><line style="stroke:#181818;stroke-width:0.5;" x1="429" x2="429" y1="56.0679" y2="95.1358"/><text fill="#000000" font-family="sans-serif" font-size="14" lengthAdjust="spacing" textLength="168" x="246" y="81.0339">Load Balancer: Customer</text></g><!--entity lb_trans--><g id="elem_lb_trans"><polygon fill="#F1F1F1" points="886,56.0679,896,46.0679,1086,46.0679,1086,85.1358,1076,95.1358,886,95.1358,886,56.0679" style="stroke:#181818;stroke-width:0.5;"/><line style="stroke:#181818;stroke-width:0.5;" x1="1076" x2="1086" y1="56.0679" y2="46.0679"/><line style="stroke:#181818;stroke-width:0.5;" x1="886" x2="1076" y1="56.0679" y2="56.0679"/><line style="stroke:#181818;stroke-width:0.5;" x1="1076" x2="1076" y1="56.0679" y2="95.1358"/><text fill="#000000" font-family="sans-serif" font-size="14" lengthAdjust="spacing" textLength="160" x="901" y="81.0339">Load Balancer: Transfer</text></g><!--entity lb_ledg--><g id="elem_lb_ledg"><polygon fill="#F1F1F1" points="1515,56.0679,1525,46.0679,1705,46.0679,1705,85.1358,1695,95.1358,1515,95.1358,1515,56.0679" style="stroke:#181818;stroke-width:0.5;"/><line style="stroke:#181818;stroke-width:0.5;" x1="1695" x2="1705" y1="56.0679" y2="46.0679"/><line style="stroke:#181818;stroke-width:0.5;" x1="1515" x2="1695" y1="56.0679" y2="56.0679"/><line style="stroke:#181818;stroke-width:0.5;" x1="1695" x2="1695" y1="56.0679" y2="95.1358"/><text fill="#000000" font-family="sans-serif" font-size="14" lengthAdjust="spacing" textLength="150" x="1530" y="81.0339">Load Balancer: Ledger</text></g><!--entity kafka--><g id="elem_kafka"><path d="M1261.2983,272.3937 C1265.4598,267.7569 1269.901,267.1465 1272.7205,273.7566 C1275.9484,266.5824 1281.8005,266.2256 1286.107,272.6987 C1289.1544,266.9546 1295.2604,266.6758 1299.1132,271.7285 C1303.6027,265.5642 1308.3138,265.8329 1312.9928,271.5064 C1317.1596,265.3547 1320.9581,265.7803 1324.7738,271.845 C1328.1891,265.7876 1333.6475,267.0884 1336.833,272.0955 C1341.8331,266.4073 1347.8612,265.8605 1351.4772,273.6044 C1355.3279,266.3009 1359.2467,265.9535 1364.3638,272.4191 C1375.216,273.2728 1378.123,279.5197 1373.0322,288.8066 C1379.2634,297.5941 1374.3395,305.9563 1364.2576,306.7797 C1360.2074,311.8018 1355.2693,313.0604 1351.7285,306.2408 C1347.8826,313.0451 1343.5449,313.8373 1338.2191,307.7974 C1334.2988,314.2157 1330.2907,314.4655 1325.7342,308.4355 C1321.4584,315.1117 1314.6229,313.1097 1311.6628,306.9887 C1308.4543,313.0807 1302.5196,314.1882 1298.9671,307.3259 C1295.2351,312.4197 1289.882,312.2224 1286.7185,306.6719 C1283.1717,313.257 1276.9103,313.2177 1273.5052,306.5308 C1269.2383,312.5451 1265.0752,312.21 1260.5054,306.8778 C1250.815,305.7009 1246.7165,297.5406 1253.9948,289.8686 C1247.4556,281.1463 1250.23,273.7571 1261.2983,272.3937 " fill="#F1F1F1" style="stroke:#181818;stroke-width:0.5;"/><text fill="#000000" font-family="sans-serif" font-size="14" lengthAdjust="spacing" textLength="89" x="1266.5" y="294.1639">Kafka Cluster</text></g><!--entity custdb--><g id="elem_custdb"><path d="M277.5,274.6979 C277.5,264.6979 335,264.6979 335,264.6979 C335,264.6979 392.5,264.6979 392.5,274.6979 L392.5,302.7658 C392.5,312.7658 335,312.7658 335,312.7658 C335,312.7658 277.5,312.7658 277.5,302.7658 L277.5,274.6979 " fill="#F1F1F1" style="stroke:#181818;stroke-width:0.5;"/><path d="M277.5,274.6979 C277.5,284.6979 335,284.6979 335,284.6979 C335,284.6979 392.5,284.6979 392.5,274.6979 " fill="none" style="stroke:#181818;stroke-width:0.5;"/><text fill="#000000" font-family="sans-serif" font-size="14" lengthAdjust="spacing" textLength="95" x="287.5" y="303.6639">Customers DB</text></g><!--entity tdb1--><g id="elem_tdb1"><path d="M926.5,274.6979 C926.5,264.6979 986,264.6979 986,264.6979 C986,264.6979 1045.5,264.6979 1045.5,274.6979 L1045.5,302.7658 C1045.5,312.7658 986,312.7658 986,312.7658 C986,312.7658 926.5,312.7658 926.5,302.7658 L926.5,274.6979 " fill="#F1F1F1" style="stroke:#181818;stroke-width:0.5;"/><path d="M926.5,274.6979 C926.5,284.6979 986,284.6979 986,284.6979 C986,284.6979 1045.5,284.6979 1045.5,274.6979 " fill="none" style="stroke:#181818;stroke-width:0.5;"/><text fill="#000000" font-family="sans-serif" font-size="14" lengthAdjust="spacing" textLength="99" x="936.5" y="303.6639">Transfers DB 1</text></g><!--entity tdb2--><g id="elem_tdb2"><path d="M1097.5,274.6979 C1097.5,264.6979 1157,264.6979 1157,264.6979 C1157,264.6979 1216.5,264.6979 1216.5,274.6979 L1216.5,302.7658 C1216.5,312.7658 1157,312.7658 1157,312.7658 C1157,312.7658 1097.5,312.7658 1097.5,302.7658 L1097.5,274.6979 " fill="#F1F1F1" style="stroke:#181818;stroke-width:0.5;"/><path d="M1097.5,274.6979 C1097.5,284.6979 1157,284.6979 1157,284.6979 C1157,284.6979 1216.5,284.6979 1216.5,274.6979 " fill="none" style="stroke:#181818;stroke-width:0.5;"/><text fill="#000000" font-family="sans-serif" font-size="14" lengthAdjust="spacing" textLength="99" x="1107.5" y="303.6639">Transfers DB 2</text></g><!--entity tdb3--><g id="elem_tdb3"><path d="M720.5,274.6979 C720.5,264.6979 780,264.6979 780,264.6979 C780,264.6979 839.5,264.6979 839.5,274.6979 L839.5,302.7658 C839.5,312.7658 780,312.7658 780,312.7658 C780,312.7658 720.5,312.7658 720.5,302.7658 L720.5,274.6979 " fill="#F1F1F1" style="stroke:#181818;stroke-width:0.5;"/><path d="M720.5,274.6979 C720.5,284.6979 780,284.6979 780,284.6979 C780,284.6979 839.5,284.6979 839.5,274.6979 " fill="none" style="stroke:#181818;stroke-width:0.5;"/><text fill="#000000" font-family="sans-serif" font-size="14" lengthAdjust="spacing" textLength="99" x="730.5" y="303.6639">Transfers DB 3</text></g><!--entity ldb1--><g id="elem_ldb1"><path d="M1406,274.6979 C1406,264.6979 1457,264.6979 1457,264.6979 C1457,264.6979 1508,264.6979 1508,274.6979 L1508,302.7658 C1508,312.7658 1457,312.7658 1457,312.7658 C1457,312.7658 1406,312.7658 1406,302.7658 L1406,274.6979 " fill="#F1F1F1" style="stroke:#181818;stroke-width:0.5;"/><path d="M1406,274.6979 C1406,284.6979 1457,284.6979 1457,284.6979 C1457,284.6979 1508,284.6979 1508,274.6979 " fill="none" style="stroke:#181818;stroke-width:0.5;"/><text fill="#000000" font-family="sans-serif" font-size="14" lengthAdjust="spacing" textLength="82" x="1416" y="303.6639">Ledger DB 1</text></g><!--entity ldb2--><g id="elem_ldb2"><path d="M1559,274.6979 C1559,264.6979 1610,264.6979 1610,264.6979 C1610,264.6979 1661,264.6979 1661,274.6979 L1661,302.7658 C1661,312.7658 1610,312.7658 1610,312.7658 C1610,312.7658 1559,312.7658 1559,302.7658 L1559,274.6979 " fill="#F1F1F1" style="stroke:#181818;stroke-width:0.5;"/><path d="M1559,274.6979 C1559,284.6979 1610,284.6979 1610,284.6979 C1610,284.6979 1661,284.6979 1661,274.6979 " fill="none" style="stroke:#181818;stroke-width:0.5;"/><text fill="#000000" font-family="sans-serif" font-size="14" lengthAdjust="spacing" textLength="82" x="1569" y="303.6639">Ledger DB 2</text></g><!--entity ldb3--><g id="elem_ldb3"><path d="M1755,274.6979 C1755,264.6979 1806,264.6979 1806,264.6979 C1806,264.6979 1857,264.6979 1857,274.6979 L1857,302.7658 C1857,312.7658 1806,312.7658 1806,312.7658 C1806,312.7658 1755,312.7658 1755,302.7658 L1755,274.6979 " fill="#F1F1F1" style="stroke:#181818;stroke-width:0.5;"/><path d="M1755,274.6979 C1755,284.6979 1806,284.6979 1806,284.6979 C1806,284.6979 1857,284.6979 1857,274.6979 " fill="none" style="stroke:#181818;stroke-width:0.5;"/><text fill="#000000" font-family="sans-serif" font-size="14" lengthAdjust="spacing" textLength="82" x="1765" y="303.6639">Ledger DB 3</text></g><!--link lb_cust to Customer Instance 1--><g id="link_lb_cust_Customer Instance 1"><path d="M247.69,95.6179 C240.92,98.2479 234.29,101.0779 228,104.1279 C199.69,117.8679 175.3128,134.98 154.6128,151.11 " fill="none" id="lb_cust-to-Customer Instance 1" style="stroke:#181818;stroke-width:1.0;"/><polygon fill="#181818" points="149.88,154.7979,159.4378,152.4212,153.824,151.7247,154.5206,146.1109,149.88,154.7979" style="stroke:#181818;stroke-width:1.0;"/></g><!--link lb_cust to Customer Instance 2--><g id="link_lb_cust_Customer Instance 2"><path d="M335,95.6279 C335,113.2579 335,131.1079 335,148.7179 " fill="none" id="lb_cust-to-Customer Instance 2" style="stroke:#181818;stroke-width:1.0;"/><polygon fill="#181818" points="335,154.7179,339,145.7179,335,149.7179,331,145.7179,335,154.7179" style="stroke:#181818;stroke-width:1.0;"/></g><!--link lb_cust to Customer Instance 3--><g id="link_lb_cust_Customer Instance 3"><path d="M422.31,95.6179 C429.08,98.2479 435.71,101.0779 442,104.1279 C470.31,117.8679 494.6872,134.98 515.3872,151.11 " fill="none" id="lb_cust-to-Customer Instance 3" style="stroke:#181818;stroke-width:1.0;"/><polygon fill="#181818" points="520.12,154.7979,515.4794,146.1109,516.176,151.7247,510.5622,152.4212,520.12,154.7979" style="stroke:#181818;stroke-width:1.0;"/></g><!--link Customer Instance 1 to custdb--><g id="link_Customer Instance 1_custdb"><path d="M169.03,204.6979 C204.64,222.5079 247.5643,243.9828 282.8743,261.6528 " fill="none" id="Customer Instance 1-to-custdb" style="stroke:#181818;stroke-width:1.0;"/><polygon fill="#181818" points="288.24,264.3379,281.9816,256.7332,283.7686,262.1003,278.4015,263.8874,288.24,264.3379" style="stroke:#181818;stroke-width:1.0;"/></g><!--link Customer Instance 2 to custdb--><g id="link_Customer Instance 2_custdb"><path d="M335,204.6979 C335,222.5779 335,240.8379 335,258.5179 " fill="none" id="Customer Instance 2-to-custdb" style="stroke:#181818;stroke-width:1.0;"/><polygon fill="#181818" points="335,264.5179,339,255.5179,335,259.5179,331,255.5179,335,264.5179" style="stroke:#181818;stroke-width:1.0;"/></g><!--link Customer Instance 3 to custdb--><g id="link_Customer Instance 3_custdb"><path d="M500.97,204.6979 C465.36,222.5079 422.4357,243.9828 387.1257,261.6528 " fill="none" id="Customer Instance 3-to-custdb" style="stroke:#181818;stroke-width:1.0;"/><polygon fill="#181818" points="381.76,264.3379,391.5985,263.8874,386.2314,262.1003,388.0184,256.7332,381.76,264.3379" style="stroke:#181818;stroke-width:1.0;"/></g><!--link lb_trans to Transfer Instance 1--><g id="link_lb_trans_Transfer Instance 1"><path d="M986,95.6279 C986,113.2579 986,131.1079 986,148.7179 " fill="none" id="lb_trans-to-Transfer Instance 1" style="stroke:#181818;stroke-width:1.0;"/><polygon fill="#181818" points="986,154.7179,990,145.7179,986,149.7179,982,145.7179,986,154.7179" style="stroke:#181818;stroke-width:1.0;"/></g><!--link lb_trans to Transfer Instance 2--><g id="link_lb_trans_Transfer Instance 2"><path d="M1069.83,95.5479 C1076.42,98.1979 1082.89,101.0579 1089,104.1279 C1116.41,117.9179 1139.7596,134.929 1159.6396,151.049 " fill="none" id="lb_trans-to-Transfer Instance 2" style="stroke:#181818;stroke-width:1.0;"/><polygon fill="#181818" points="1164.3,154.8279,1159.8287,146.0525,1160.4163,151.6788,1154.7901,152.2664,1164.3,154.8279" style="stroke:#181818;stroke-width:1.0;"/></g><!--link lb_trans to Transfer Instance 3--><g id="link_lb_trans_Transfer Instance 3"><path d="M902.17,95.5479 C895.58,98.1979 889.11,101.0579 883,104.1279 C855.59,117.9179 832.2404,134.929 812.3604,151.049 " fill="none" id="lb_trans-to-Transfer Instance 3" style="stroke:#181818;stroke-width:1.0;"/><polygon fill="#181818" points="807.7,154.8279,817.2099,152.2664,811.5837,151.6788,812.1713,146.0525,807.7,154.8279" style="stroke:#181818;stroke-width:1.0;"/></g><!--link Transfer Instance 1 to tdb1--><g id="link_Transfer Instance 1_tdb1"><path d="M986,204.6979 C986,222.5779 986,240.8379 986,258.5179 " fill="none" id="Transfer Instance 1-to-tdb1" style="stroke:#181818;stroke-width:1.0;"/><polygon fill="#181818" points="986,264.5179,990,255.5179,986,259.5179,982,255.5179,986,264.5179" style="stroke:#181818;stroke-width:1.0;"/></g><!--link Transfer Instance 2 to tdb2--><g id="link_Transfer Instance 2_tdb2"><path d="M1184.15,204.6979 C1178.3,222.5779 1172.2344,241.1349 1166.4544,258.8149 " fill="none" id="Transfer Instance 2-to-tdb2" style="stroke:#181818;stroke-width:1.0;"/><polygon fill="#181818" points="1164.59,264.5179,1171.1886,257.2064,1166.1437,259.7654,1163.5847,254.7205,1164.59,264.5179" style="stroke:#181818;stroke-width:1.0;"/></g><!--link Transfer Instance 3 to tdb3--><g id="link_Transfer Instance 3_tdb3"><path d="M780,204.6979 C780,222.5779 780,240.8379 780,258.5179 " fill="none" id="Transfer Instance 3-to-tdb3" style="stroke:#181818;stroke-width:1.0;"/><polygon fill="#181818" points="780,264.5179,784,255.5179,780,259.5179,776,255.5179,780,264.5179" style="stroke:#181818;stroke-width:1.0;"/></g><!--link lb_ledg to Ledger Instance 1--><g id="link_lb_ledg_Ledger Instance 1"><path d="M1530.17,95.6079 C1523.92,98.2379 1517.79,101.0779 1512,104.1279 C1485.72,117.9979 1463.6534,134.8823 1444.7934,150.9823 " fill="none" id="lb_ledg-to-Ledger Instance 1" style="stroke:#181818;stroke-width:1.0;"/><polygon fill="#181818" points="1440.23,154.8779,1449.6721,152.0768,1444.0328,151.6316,1444.478,145.9923,1440.23,154.8779" style="stroke:#181818;stroke-width:1.0;"/></g><!--link lb_ledg to Ledger Instance 2--><g id="link_lb_ledg_Ledger Instance 2"><path d="M1610,95.6279 C1610,113.2579 1610,131.1079 1610,148.7179 " fill="none" id="lb_ledg-to-Ledger Instance 2" style="stroke:#181818;stroke-width:1.0;"/><polygon fill="#181818" points="1610,154.7179,1614,145.7179,1610,149.7179,1606,145.7179,1610,154.7179" style="stroke:#181818;stroke-width:1.0;"/></g><!--link lb_ledg to Ledger Instance 3--><g id="link_lb_ledg_Ledger Instance 3"><path d="M1689.83,95.6079 C1696.08,98.2379 1702.21,101.0779 1708,104.1279 C1734.28,117.9979 1756.3466,134.8823 1775.2066,150.9823 " fill="none" id="lb_ledg-to-Ledger Instance 3" style="stroke:#181818;stroke-width:1.0;"/><polygon fill="#181818" points="1779.77,154.8779,1775.522,145.9923,1775.9672,151.6316,1770.3279,152.0768,1779.77,154.8779" style="stroke:#181818;stroke-width:1.0;"/></g><!--link Ledger Instance 1 to ldb1--><g id="link_Ledger Instance 1_ldb1"><path d="M1423.65,204.6979 C1430.83,222.5779 1438.3441,241.2701 1445.4441,258.9501 " fill="none" id="Ledger Instance 1-to-ldb1" style="stroke:#181818;stroke-width:1.0;"/><polygon fill="#181818" points="1447.68,264.5179,1448.038,254.6756,1445.8167,259.8781,1440.6142,257.6568,1447.68,264.5179" style="stroke:#181818;stroke-width:1.0;"/></g><!--link Ledger Instance 2 to ldb2--><g id="link_Ledger Instance 2_ldb2"><path d="M1610,204.6979 C1610,222.5779 1610,240.8379 1610,258.5179 " fill="none" id="Ledger Instance 2-to-ldb2" style="stroke:#181818;stroke-width:1.0;"/><polygon fill="#181818" points="1610,264.5179,1614,255.5179,1610,259.5179,1606,255.5179,1610,264.5179" style="stroke:#181818;stroke-width:1.0;"/></g><!--link Ledger Instance 3 to ldb3--><g id="link_Ledger Instance 3_ldb3"><path d="M1806,204.6979 C1806,222.5779 1806,240.8379 1806,258.5179 " fill="none" id="Ledger Instance 3-to-ldb3" style="stroke:#181818;stroke-width:1.0;"/><polygon fill="#181818" points="1806,264.5179,1810,255.5179,1806,259.5179,1802,255.5179,1806,264.5179" style="stroke:#181818;stroke-width:1.0;"/></g><!--link Transfer Instance 1 to kafka--><g id="link_Transfer Instance 1_kafka"><path d="M1032.91,204.5879 C1050.24,212.8179 1070.23,221.6079 1089,228.1979 C1151.65,250.2079 1170,246.4879 1234,264.1979 C1239.66,265.7679 1239.7747,265.7517 1245.6447,267.4817 " fill="none" id="Transfer Instance 1-to-kafka" style="stroke:#181818;stroke-width:1.0;"/><polygon fill="#181818" points="1251.4,269.1779,1243.8979,262.7968,1246.604,267.7644,1241.6363,270.4705,1251.4,269.1779" style="stroke:#181818;stroke-width:1.0;"/></g><!--link Transfer Instance 2 to kafka--><g id="link_Transfer Instance 2_kafka"><path d="M1218.71,204.6979 C1238.3,222.3279 1260.351,242.1532 1279.921,259.7732 " fill="none" id="Transfer Instance 2-to-kafka" style="stroke:#181818;stroke-width:1.0;"/><polygon fill="#181818" points="1284.38,263.7879,1280.368,254.7933,1280.6642,260.4424,1275.0151,260.7386,1284.38,263.7879" style="stroke:#181818;stroke-width:1.0;"/></g><!--link Ledger Instance 1 to kafka--><g id="link_Ledger Instance 1_kafka"><path d="M1390.88,204.6979 C1373.92,222.3279 1355.1384,241.8426 1338.1984,259.4626 " fill="none" id="Ledger Instance 1-to-kafka" style="stroke:#181818;stroke-width:1.0;"/><polygon fill="#181818" points="1334.04,263.7879,1343.1611,260.0722,1337.5053,260.1835,1337.394,254.5278,1334.04,263.7879" style="stroke:#181818;stroke-width:1.0;"/></g><!--link Ledger Instance 2 to kafka--><g id="link_Ledger Instance 2_kafka"><path d="M1564.84,204.5479 C1548.46,212.6779 1529.65,221.4179 1512,228.1979 C1458.44,248.7979 1443,247.8079 1388,264.1979 C1382.37,265.8779 1382.2629,265.9003 1376.4129,267.6703 " fill="none" id="Ledger Instance 2-to-kafka" style="stroke:#181818;stroke-width:1.0;"/><polygon fill="#181818" points="1370.67,269.4079,1380.4427,270.6301,1375.4557,267.9599,1378.1259,262.9729,1370.67,269.4079" style="stroke:#181818;stroke-width:1.0;"/></g><!--SRC=[XPGxRyCW58LtViLLzWp1MuSEIPUegLGftQgekZ4ujK9m1RWFLVtlvM5ifuRQ6vpFznmkrzRdMhwXmWl8Xl6z-H8S52yDofFWHFUgVaNMVDJo11KApGanjR7eLbOAkJQgDQr2MC9Z_GaFTQaQpTLxNN9DY2iCYrs33DOeK9PStS2crQQvSBK0r22EBwLTfyadXL9N0sdSEetkE3iDeB0hGahHj0mMzrYT4JR2sdJ4sUt4T34Ex4FiWVmcO9_d7jXARPmTh0uvXMQLua1-ecKyLzQo1oQMKuLcbR5bw4_Mi9CdTd_tQMO_M34qU4GzQgg6kxLlkRjaTXmHCQuZOEKP2wno18q4pH5598eHqUNiBSIrnI3JADEaN4Iv8AGRMLWkRpF3CKFGMSAsCrdPyrqhauLdWE8A8F6J2Z6IGpU7q7d47IPLs_F-pfDreqn9icQKmuMu3pxu9oRvNvtEw2xzjAPd_J0b2aQHaaIrADhS-Qw47rI-BPsUoPLHhzxz1G00]--></g></svg>